<svg version="1.1" id="Layer_1" xmlns="http://www.w3.org/2000/svg" xmlns:xlink="http://www.w3.org/1999/xlink" x="0px" y="0px"
	 width="100%" viewBox="0 0 2000 1500" enable-background="new 0 0 2000 1500" xml:space="preserve">
<path fill="#333366" opacity="1.000000" stroke="none" 
	d="
M1355.000000,1501.000000 
	C903.333496,1501.000000 452.166931,1501.000000 1.000303,1501.000000 
	C1.000202,1001.000305 1.000202,501.000580 1.000101,1.000638 
	C667.666199,1.000425 1334.332397,1.000425 2000.998901,1.000213 
	C2000.999268,500.999359 2000.999268,1000.998718 2000.999634,1500.999023 
	C1785.833374,1501.000000 1570.666626,1501.000000 1355.000000,1501.000000 
M1284.708862,686.257507 
	C1311.419800,624.634033 1318.184692,560.895325 1304.079224,495.226135 
	C1267.525269,325.045959 1094.855835,212.447388 916.075317,262.494812 
	C750.885803,308.737610 655.434143,481.869446 702.944702,646.694946 
	C747.414185,800.970215 902.970825,896.696045 1060.281494,864.889893 
	C1164.625244,843.793030 1238.909912,783.077881 1284.708862,686.257507 
M1380.485352,1230.117188 
	C1375.211304,1230.117188 1369.937134,1230.117188 1364.461670,1230.117188 
	C1364.461670,1237.328247 1364.461670,1243.912109 1364.461670,1250.680176 
	C1390.739014,1250.680176 1416.777588,1250.680176 1442.779175,1250.680176 
	C1442.779175,1243.753906 1442.779175,1237.157593 1442.779175,1229.940674 
	C1432.660522,1229.940674 1422.782837,1229.940674 1413.178955,1229.940674 
	C1413.178955,1161.406128 1413.178955,1093.497437 1413.178955,1025.202271 
	C1423.006958,1025.202271 1432.448486,1025.202271 1442.044312,1025.202271 
	C1442.044312,1018.042297 1442.044312,1011.272644 1442.044312,1004.117310 
	C1430.672974,1004.117310 1419.535767,1004.217346 1408.402466,1004.050232 
	C1405.443604,1004.005798 1403.607666,1004.900635 1401.776489,1007.286621 
	C1363.845337,1056.705200 1325.818604,1106.050293 1287.800171,1155.401733 
	C1286.441895,1157.165039 1284.975342,1158.844849 1283.369995,1160.792969 
	C1280.198853,1156.723755 1277.315063,1153.071045 1274.481201,1149.380005 
	C1238.268311,1102.213135 1202.074585,1055.031616 1165.803467,1007.909668 
	C1164.599731,1006.346008 1162.657715,1004.330994 1161.014404,1004.288452 
	C1149.056152,1003.979065 1137.086182,1004.122009 1124.985107,1004.122009 
	C1124.985107,1011.401367 1124.985107,1018.273438 1124.985107,1025.505859 
	C1134.821045,1025.505859 1144.257690,1025.505859 1153.724609,1025.505859 
	C1153.724609,1093.913940 1153.724609,1161.951294 1153.724609,1230.338379 
	C1143.888550,1230.338379 1134.453857,1230.338379 1124.974976,1230.338379 
	C1124.974976,1237.400024 1124.974976,1244.104858 1124.974976,1250.720215 
	C1151.127930,1250.720215 1176.888306,1250.720215 1202.573608,1250.720215 
	C1202.573608,1243.715820 1202.573608,1237.005737 1202.573608,1229.942871 
	C1193.724243,1229.942871 1185.272949,1229.942871 1176.395020,1229.942871 
	C1176.395020,1172.139038 1176.395020,1114.704590 1176.395020,1056.584839 
	C1212.310059,1103.573120 1247.758911,1149.951294 1283.488770,1196.697266 
	C1319.467651,1149.839600 1355.058960,1103.486572 1390.493652,1057.337524 
	C1390.493652,1114.817261 1390.493652,1172.243286 1390.493652,1230.117065 
	C1387.072144,1230.117065 1384.276489,1230.117065 1380.485352,1230.117188 
M633.458435,1186.007568 
	C611.888733,1158.718994 590.318970,1131.430542 568.633972,1103.996094 
	C569.377075,1103.155518 569.865295,1102.513916 570.441467,1101.964600 
	C596.371277,1077.246216 622.275085,1052.500244 648.327698,1027.911987 
	C649.916016,1026.412964 652.669373,1025.534058 654.917480,1025.458008 
	C663.328918,1025.174316 671.755676,1025.344604 679.992188,1025.344604 
	C679.992188,1017.835999 679.992188,1011.088379 679.992188,1004.406067 
	C655.526184,1004.406067 631.434387,1004.406067 607.207153,1004.406067 
	C607.207153,1011.449768 607.207153,1018.201660 607.207153,1025.690430 
	C612.071899,1025.690430 616.713562,1025.690430 622.457031,1025.690430 
	C590.043396,1056.662720 558.601318,1086.706787 527.667480,1116.265137 
	C527.667480,1086.421753 527.667480,1056.034668 527.667480,1025.196899 
	C535.952637,1025.196899 543.554138,1025.196899 551.237854,1025.196899 
	C551.237854,1017.983032 551.237854,1011.232117 551.237854,1004.487915 
	C526.699829,1004.487915 502.479553,1004.487915 478.380676,1004.487915 
	C478.380676,1011.591431 478.380676,1018.317505 478.380676,1025.371094 
	C487.349823,1025.371094 495.977478,1025.371094 504.846924,1025.371094 
	C504.846924,1093.743896 504.846924,1161.778320 504.846924,1230.307251 
	C495.787537,1230.307251 487.045624,1230.307251 478.275635,1230.307251 
	C478.275635,1237.398804 478.275635,1243.992798 478.275635,1250.680176 
	C504.385803,1250.680176 530.252869,1250.680176 556.176575,1250.680176 
	C556.176575,1243.742310 556.176575,1237.134521 556.176575,1229.954102 
	C546.519958,1229.954102 537.125793,1229.954102 527.541748,1229.954102 
	C527.541748,1201.386719 527.531494,1173.397095 527.580322,1145.407593 
	C527.582214,1144.320923 527.808350,1142.886230 528.506592,1142.202637 
	C536.760620,1134.121704 545.124451,1126.152954 553.664062,1117.958496 
	C583.075012,1155.374512 612.127991,1192.335083 641.898132,1230.208008 
	C634.605347,1230.208008 628.543457,1230.208008 622.449463,1230.208008 
	C622.449463,1237.420288 622.449463,1244.130493 622.449463,1250.774902 
	C646.934265,1250.774902 671.046021,1250.774902 695.286377,1250.774902 
	C695.286377,1243.815552 695.286377,1237.094116 695.286377,1230.115601 
	C687.254272,1230.115601 679.590820,1230.301147 671.947693,1229.988770 
	C669.971375,1229.907959 667.435913,1228.769897 666.214417,1227.261475 
	C655.313721,1213.800781 644.650146,1200.148315 633.458435,1186.007568 
M798.787537,1232.879272 
	C797.785767,1231.960938 796.851440,1230.357178 795.769714,1230.250610 
	C792.304016,1229.909180 788.783691,1230.121582 785.284485,1230.121338 
	C777.360596,1230.120972 769.436707,1230.121094 761.577148,1230.121094 
	C761.577148,1199.192505 761.577148,1168.978149 761.577148,1137.835815 
	C773.419678,1137.835815 784.892822,1137.718628 796.356812,1137.989990 
	C797.730591,1138.022461 799.605774,1139.898926 800.316345,1141.370850 
	C807.687927,1156.640381 814.860352,1172.005859 822.103516,1187.337524 
	C832.113708,1208.526123 842.137207,1229.708618 852.026123,1250.621094 
	C867.603760,1250.621094 882.832520,1250.621094 897.856323,1250.621094 
	C897.856323,1243.645508 897.856323,1237.057129 897.856323,1230.120972 
	C888.715210,1230.120972 879.907593,1229.933228 871.114624,1230.210938 
	C867.464294,1230.326172 865.535522,1229.328369 863.977417,1225.844482 
	C857.938110,1212.340454 851.512024,1199.009521 845.244690,1185.607422 
	C837.578979,1169.215332 829.928101,1152.816284 822.158997,1136.180786 
	C825.813416,1135.076172 829.142700,1134.082397 832.464539,1133.063965 
	C878.387817,1118.985840 887.553833,1054.823242 856.580200,1027.724487 
	C841.581909,1014.602661 824.418152,1006.283752 804.920471,1005.269897 
	C777.171997,1003.827087 749.314880,1004.473633 721.504089,1004.247498 
	C721.220398,1004.245178 720.934570,1004.512756 720.405457,1004.775696 
	C720.405457,1011.403442 720.405457,1018.136841 720.405457,1025.244141 
	C726.595947,1025.244141 732.558411,1025.244141 738.727417,1025.244141 
	C738.727417,1093.677124 738.727417,1161.736450 738.727417,1230.216553 
	C732.528503,1230.216553 726.600159,1230.216553 720.499390,1230.216553 
	C720.499390,1237.347290 720.499390,1244.053833 720.499390,1250.629150 
	C746.740723,1250.629150 772.634277,1250.629150 798.791321,1250.629150 
	C798.791321,1244.776978 798.791321,1239.297363 798.787537,1232.879272 
M1076.500000,1251.004150 
	C1084.249023,1251.004150 1091.997925,1251.004150 1099.648682,1251.004150 
	C1099.648682,1232.622681 1099.648682,1215.021240 1099.648682,1197.209473 
	C1092.633545,1197.209473 1085.874146,1197.209473 1078.677490,1197.209473 
	C1078.677490,1208.141357 1078.677490,1218.911011 1078.677490,1229.766846 
	C1041.520020,1229.766846 1004.800171,1229.766846 968.178467,1229.766846 
	C968.178467,1198.831299 968.178467,1168.250488 968.178467,1137.178223 
	C1005.895752,1137.178223 1043.294556,1137.178223 1080.791992,1137.178223 
	C1080.791992,1129.942749 1080.791992,1123.205078 1080.791992,1116.027100 
	C1043.105469,1116.027100 1005.695129,1116.027100 968.094299,1116.027100 
	C968.094299,1085.664917 968.094299,1055.747192 968.094299,1025.756836 
	C1003.353821,1025.756836 1038.373779,1025.756836 1073.976562,1025.756836 
	C1073.976562,1036.889771 1073.976562,1047.613281 1073.976562,1058.265015 
	C1081.289551,1058.265015 1088.008911,1058.265015 1094.661743,1058.265015 
	C1094.661743,1040.091797 1094.661743,1022.325562 1094.661743,1004.454590 
	C1037.328613,1004.454590 980.278625,1004.454590 923.259338,1004.454590 
	C923.259338,1011.534058 923.259338,1018.274963 923.259338,1025.437744 
	C930.662598,1025.437744 937.768677,1025.437744 945.204834,1025.437744 
	C945.204834,1093.768799 945.204834,1161.670532 945.204834,1230.088501 
	C937.919189,1230.088501 930.669922,1230.088501 923.268311,1230.088501 
	C923.268311,1237.318481 923.268311,1244.029907 923.268311,1251.004150 
	C974.220154,1251.004150 1024.860107,1251.004150 1076.500000,1251.004150 
M398.500031,1230.120728 
	C372.895233,1230.120728 347.290405,1230.120728 321.644653,1230.120728 
	C321.644653,1198.886108 321.644653,1168.202393 321.644653,1137.052368 
	C359.479858,1137.052368 396.886688,1137.052368 434.374573,1137.052368 
	C434.374573,1129.845703 434.374573,1123.113770 434.374573,1116.002563 
	C396.601685,1116.002563 359.173187,1116.002563 321.483337,1116.002563 
	C321.483337,1085.715576 321.483337,1055.815674 321.483337,1025.699219 
	C356.770569,1025.699219 391.787720,1025.699219 427.322083,1025.699219 
	C427.322083,1036.788452 427.322083,1047.526245 427.322083,1058.305054 
	C434.560364,1058.305054 441.275177,1058.305054 447.949890,1058.305054 
	C447.949890,1040.068115 447.949890,1022.199463 447.949890,1004.449341 
	C390.644470,1004.449341 333.748138,1004.449341 276.745026,1004.449341 
	C276.745026,1011.505249 276.745026,1018.228638 276.745026,1025.480591 
	C284.296295,1025.480591 291.517365,1025.480591 298.766357,1025.480591 
	C298.766357,1093.921265 298.766357,1161.826538 298.766357,1230.248047 
	C291.296051,1230.248047 284.069855,1230.248047 276.650818,1230.248047 
	C276.650818,1237.358521 276.650818,1243.951416 276.650818,1250.708008 
	C335.590149,1250.708008 394.280579,1250.708008 452.945618,1250.708008 
	C452.945618,1232.679810 452.945618,1214.949707 452.945618,1197.336548 
	C445.860382,1197.336548 439.114044,1197.336548 431.905823,1197.336548 
	C431.905823,1208.407837 431.905823,1219.145752 431.905823,1230.120728 
	C420.788818,1230.120728 410.144440,1230.120728 398.500031,1230.120728 
M1659.578369,1251.005249 
	C1681.481812,1251.005249 1703.385376,1251.005249 1725.277344,1251.005249 
	C1725.277344,1243.678955 1725.277344,1237.085938 1725.277344,1230.118896 
	C1717.323486,1230.118896 1709.681152,1229.947510 1702.052734,1230.196655 
	C1698.618774,1230.308838 1696.861328,1229.371460 1695.438477,1226.003662 
	C1666.010986,1156.346680 1636.434204,1086.752808 1606.888306,1017.145752 
	C1603.590332,1009.376099 1600.299316,1001.603638 1596.730591,993.184753 
	C1595.718506,995.387451 1595.010010,996.830811 1594.383057,998.308838 
	C1562.250732,1074.041138 1530.102783,1149.766724 1498.073242,1225.542358 
	C1496.651611,1228.905762 1495.068726,1230.391602 1491.232056,1230.219604 
	C1483.625977,1229.878784 1475.993896,1230.118896 1468.167236,1230.118896 
	C1468.167236,1237.299194 1468.167236,1244.002563 1468.167236,1250.766113 
	C1492.563965,1250.766113 1516.648560,1250.766113 1540.784058,1250.766113 
	C1540.784058,1243.818848 1540.784058,1237.115723 1540.784058,1230.035645 
	C1533.334229,1230.035645 1526.245972,1230.035645 1518.651245,1230.035645 
	C1519.312378,1228.167969 1519.723267,1226.772705 1520.289062,1225.443481 
	C1530.442017,1201.588745 1540.682983,1177.771118 1550.696655,1153.858276 
	C1551.997070,1150.752808 1553.492920,1149.718750 1556.860962,1149.738525 
	C1583.185913,1149.892334 1609.513184,1149.942993 1635.836792,1149.699585 
	C1639.962891,1149.661377 1641.534668,1151.142700 1642.991455,1154.671143 
	C1652.758301,1178.326904 1662.755981,1201.887451 1672.664429,1225.484741 
	C1673.222778,1226.814209 1673.654419,1228.196899 1674.417358,1230.308594 
	C1666.613403,1230.308594 1659.407227,1230.308594 1652.364746,1230.308594 
	C1652.364746,1237.536499 1652.364746,1244.128906 1652.364746,1251.005249 
	C1654.648438,1251.005249 1656.624512,1251.005249 1659.578369,1251.005249 
z"/>
<path fill="#FDFDFD" opacity="1.000000" stroke="none" 
	d="
M1284.521729,686.586548 
	C1238.909912,783.077881 1164.625244,843.793030 1060.281494,864.889893 
	C902.970825,896.696045 747.414185,800.970215 702.944702,646.694946 
	C655.434143,481.869446 750.885803,308.737610 916.075317,262.494812 
	C1094.855835,212.447388 1267.525269,325.045959 1304.079224,495.226135 
	C1318.184692,560.895325 1311.419800,624.634033 1284.521729,686.586548 
M1120.155884,821.762146 
	C1120.600098,821.532410 1121.036987,821.287170 1121.489502,821.075134 
	C1244.811890,763.299133 1310.654785,629.361816 1280.777832,497.046997 
	C1243.515747,332.025024 1070.379517,234.816513 909.793091,288.754852 
	C770.005737,335.707123 688.323120,481.315857 721.293335,624.777283 
	C761.868042,801.327942 954.901062,896.957947 1120.155884,821.762146 
z"/>
<path fill="#FCFCFD" opacity="1.000000" stroke="none" 
	d="
M1380.983032,1230.117188 
	C1384.276489,1230.117065 1387.072144,1230.117065 1390.493652,1230.117065 
	C1390.493652,1172.243286 1390.493652,1114.817261 1390.493652,1057.337524 
	C1355.058960,1103.486572 1319.467651,1149.839600 1283.488770,1196.697266 
	C1247.758911,1149.951294 1212.310059,1103.573120 1176.395020,1056.584839 
	C1176.395020,1114.704590 1176.395020,1172.139038 1176.395020,1229.942871 
	C1185.272949,1229.942871 1193.724243,1229.942871 1202.573608,1229.942871 
	C1202.573608,1237.005737 1202.573608,1243.715820 1202.573608,1250.720215 
	C1176.888306,1250.720215 1151.127930,1250.720215 1124.974976,1250.720215 
	C1124.974976,1244.104858 1124.974976,1237.400024 1124.974976,1230.338379 
	C1134.453857,1230.338379 1143.888550,1230.338379 1153.724609,1230.338379 
	C1153.724609,1161.951294 1153.724609,1093.913940 1153.724609,1025.505859 
	C1144.257690,1025.505859 1134.821045,1025.505859 1124.985107,1025.505859 
	C1124.985107,1018.273438 1124.985107,1011.401367 1124.985107,1004.122009 
	C1137.086182,1004.122009 1149.056152,1003.979065 1161.014404,1004.288452 
	C1162.657715,1004.330994 1164.599731,1006.346008 1165.803467,1007.909668 
	C1202.074585,1055.031616 1238.268311,1102.213135 1274.481201,1149.380005 
	C1277.315063,1153.071045 1280.198853,1156.723755 1283.369995,1160.792969 
	C1284.975342,1158.844849 1286.441895,1157.165039 1287.800171,1155.401733 
	C1325.818604,1106.050293 1363.845337,1056.705200 1401.776489,1007.286621 
	C1403.607666,1004.900635 1405.443604,1004.005798 1408.402466,1004.050232 
	C1419.535767,1004.217346 1430.672974,1004.117310 1442.044312,1004.117310 
	C1442.044312,1011.272644 1442.044312,1018.042297 1442.044312,1025.202271 
	C1432.448486,1025.202271 1423.006958,1025.202271 1413.178955,1025.202271 
	C1413.178955,1093.497437 1413.178955,1161.406128 1413.178955,1229.940674 
	C1422.782837,1229.940674 1432.660522,1229.940674 1442.779175,1229.940674 
	C1442.779175,1237.157593 1442.779175,1243.753906 1442.779175,1250.680176 
	C1416.777588,1250.680176 1390.739014,1250.680176 1364.461670,1250.680176 
	C1364.461670,1243.912109 1364.461670,1237.328247 1364.461670,1230.117188 
	C1369.937134,1230.117188 1375.211304,1230.117188 1380.983032,1230.117188 
z"/>
<path fill="#FCFCFC" opacity="1.000000" stroke="none" 
	d="
M633.687561,1186.279907 
	C644.650146,1200.148315 655.313721,1213.800781 666.214417,1227.261475 
	C667.435913,1228.769897 669.971375,1229.907959 671.947693,1229.988770 
	C679.590820,1230.301147 687.254272,1230.115601 695.286377,1230.115601 
	C695.286377,1237.094116 695.286377,1243.815552 695.286377,1250.774902 
	C671.046021,1250.774902 646.934265,1250.774902 622.449463,1250.774902 
	C622.449463,1244.130493 622.449463,1237.420288 622.449463,1230.208008 
	C628.543457,1230.208008 634.605347,1230.208008 641.898132,1230.208008 
	C612.127991,1192.335083 583.075012,1155.374512 553.664062,1117.958496 
	C545.124451,1126.152954 536.760620,1134.121704 528.506592,1142.202637 
	C527.808350,1142.886230 527.582214,1144.320923 527.580322,1145.407593 
	C527.531494,1173.397095 527.541748,1201.386719 527.541748,1229.954102 
	C537.125793,1229.954102 546.519958,1229.954102 556.176575,1229.954102 
	C556.176575,1237.134521 556.176575,1243.742310 556.176575,1250.680176 
	C530.252869,1250.680176 504.385803,1250.680176 478.275635,1250.680176 
	C478.275635,1243.992798 478.275635,1237.398804 478.275635,1230.307251 
	C487.045624,1230.307251 495.787537,1230.307251 504.846924,1230.307251 
	C504.846924,1161.778320 504.846924,1093.743896 504.846924,1025.371094 
	C495.977478,1025.371094 487.349823,1025.371094 478.380676,1025.371094 
	C478.380676,1018.317505 478.380676,1011.591431 478.380676,1004.487915 
	C502.479553,1004.487915 526.699829,1004.487915 551.237854,1004.487915 
	C551.237854,1011.232117 551.237854,1017.983032 551.237854,1025.196899 
	C543.554138,1025.196899 535.952637,1025.196899 527.667480,1025.196899 
	C527.667480,1056.034668 527.667480,1086.421753 527.667480,1116.265137 
	C558.601318,1086.706787 590.043396,1056.662720 622.457031,1025.690430 
	C616.713562,1025.690430 612.071899,1025.690430 607.207153,1025.690430 
	C607.207153,1018.201660 607.207153,1011.449768 607.207153,1004.406067 
	C631.434387,1004.406067 655.526184,1004.406067 679.992188,1004.406067 
	C679.992188,1011.088379 679.992188,1017.835999 679.992188,1025.344604 
	C671.755676,1025.344604 663.328918,1025.174316 654.917480,1025.458008 
	C652.669373,1025.534058 649.916016,1026.412964 648.327698,1027.911987 
	C622.275085,1052.500244 596.371277,1077.246216 570.441467,1101.964600 
	C569.865295,1102.513916 569.377075,1103.155518 568.633972,1103.996094 
	C590.318970,1131.430542 611.888733,1158.718994 633.687561,1186.279907 
z"/>
<path fill="#FDFDFE" opacity="1.000000" stroke="none" 
	d="
M798.789429,1233.348389 
	C798.791321,1239.297363 798.791321,1244.776978 798.791321,1250.629150 
	C772.634277,1250.629150 746.740723,1250.629150 720.499390,1250.629150 
	C720.499390,1244.053833 720.499390,1237.347290 720.499390,1230.216553 
	C726.600159,1230.216553 732.528503,1230.216553 738.727417,1230.216553 
	C738.727417,1161.736450 738.727417,1093.677124 738.727417,1025.244141 
	C732.558411,1025.244141 726.595947,1025.244141 720.405457,1025.244141 
	C720.405457,1018.136841 720.405457,1011.403442 720.405457,1004.775696 
	C720.934570,1004.512756 721.220398,1004.245178 721.504089,1004.247498 
	C749.314880,1004.473633 777.171997,1003.827087 804.920471,1005.269897 
	C824.418152,1006.283752 841.581909,1014.602661 856.580200,1027.724487 
	C887.553833,1054.823242 878.387817,1118.985840 832.464539,1133.063965 
	C829.142700,1134.082397 825.813416,1135.076172 822.158997,1136.180786 
	C829.928101,1152.816284 837.578979,1169.215332 845.244690,1185.607422 
	C851.512024,1199.009521 857.938110,1212.340454 863.977417,1225.844482 
	C865.535522,1229.328369 867.464294,1230.326172 871.114624,1230.210938 
	C879.907593,1229.933228 888.715210,1230.120972 897.856323,1230.120972 
	C897.856323,1237.057129 897.856323,1243.645508 897.856323,1250.621094 
	C882.832520,1250.621094 867.603760,1250.621094 852.026123,1250.621094 
	C842.137207,1229.708618 832.113708,1208.526123 822.103516,1187.337524 
	C814.860352,1172.005859 807.687927,1156.640381 800.316345,1141.370850 
	C799.605774,1139.898926 797.730591,1138.022461 796.356812,1137.989990 
	C784.892822,1137.718628 773.419678,1137.835815 761.577148,1137.835815 
	C761.577148,1168.978149 761.577148,1199.192505 761.577148,1230.121094 
	C769.436707,1230.121094 777.360596,1230.120972 785.284485,1230.121338 
	C788.783691,1230.121582 792.304016,1229.909180 795.769714,1230.250610 
	C796.851440,1230.357178 797.785767,1231.960938 798.789429,1233.348389 
M761.188660,1052.499878 
	C761.188660,1073.906494 761.188660,1095.313110 761.188660,1116.763184 
	C774.974792,1116.763184 787.968445,1117.031982 800.945312,1116.680664 
	C811.908386,1116.383789 822.241699,1113.400513 831.725098,1107.647705 
	C853.956116,1094.161621 859.039795,1064.343750 842.232483,1045.098511 
	C833.698120,1035.326294 822.708435,1028.770752 810.131165,1027.334717 
	C794.334900,1025.531250 778.277039,1026.016113 762.331238,1025.541992 
	C762.067017,1025.534302 761.792114,1025.888550 761.188660,1026.302979 
	C761.188660,1034.549316 761.188660,1043.024536 761.188660,1052.499878 
z"/>
<path fill="#FDFDFE" opacity="1.000000" stroke="none" 
	d="
M1076.000000,1251.004150 
	C1024.860107,1251.004150 974.220154,1251.004150 923.268311,1251.004150 
	C923.268311,1244.029907 923.268311,1237.318481 923.268311,1230.088501 
	C930.669922,1230.088501 937.919189,1230.088501 945.204834,1230.088501 
	C945.204834,1161.670532 945.204834,1093.768799 945.204834,1025.437744 
	C937.768677,1025.437744 930.662598,1025.437744 923.259338,1025.437744 
	C923.259338,1018.274963 923.259338,1011.534058 923.259338,1004.454590 
	C980.278625,1004.454590 1037.328613,1004.454590 1094.661743,1004.454590 
	C1094.661743,1022.325562 1094.661743,1040.091797 1094.661743,1058.265015 
	C1088.008911,1058.265015 1081.289551,1058.265015 1073.976562,1058.265015 
	C1073.976562,1047.613281 1073.976562,1036.889771 1073.976562,1025.756836 
	C1038.373779,1025.756836 1003.353821,1025.756836 968.094299,1025.756836 
	C968.094299,1055.747192 968.094299,1085.664917 968.094299,1116.027100 
	C1005.695129,1116.027100 1043.105469,1116.027100 1080.791992,1116.027100 
	C1080.791992,1123.205078 1080.791992,1129.942749 1080.791992,1137.178223 
	C1043.294556,1137.178223 1005.895752,1137.178223 968.178467,1137.178223 
	C968.178467,1168.250488 968.178467,1198.831299 968.178467,1229.766846 
	C1004.800171,1229.766846 1041.520020,1229.766846 1078.677490,1229.766846 
	C1078.677490,1218.911011 1078.677490,1208.141357 1078.677490,1197.209473 
	C1085.874146,1197.209473 1092.633545,1197.209473 1099.648682,1197.209473 
	C1099.648682,1215.021240 1099.648682,1232.622681 1099.648682,1251.004150 
	C1091.997925,1251.004150 1084.249023,1251.004150 1076.000000,1251.004150 
z"/>
<path fill="#FDFDFE" opacity="1.000000" stroke="none" 
	d="
M399.000061,1230.120728 
	C410.144440,1230.120728 420.788818,1230.120728 431.905823,1230.120728 
	C431.905823,1219.145752 431.905823,1208.407837 431.905823,1197.336548 
	C439.114044,1197.336548 445.860382,1197.336548 452.945618,1197.336548 
	C452.945618,1214.949707 452.945618,1232.679810 452.945618,1250.708008 
	C394.280579,1250.708008 335.590149,1250.708008 276.650818,1250.708008 
	C276.650818,1243.951416 276.650818,1237.358521 276.650818,1230.248047 
	C284.069855,1230.248047 291.296051,1230.248047 298.766357,1230.248047 
	C298.766357,1161.826538 298.766357,1093.921265 298.766357,1025.480591 
	C291.517365,1025.480591 284.296295,1025.480591 276.745026,1025.480591 
	C276.745026,1018.228638 276.745026,1011.505249 276.745026,1004.449341 
	C333.748138,1004.449341 390.644470,1004.449341 447.949890,1004.449341 
	C447.949890,1022.199463 447.949890,1040.068115 447.949890,1058.305054 
	C441.275177,1058.305054 434.560364,1058.305054 427.322083,1058.305054 
	C427.322083,1047.526245 427.322083,1036.788452 427.322083,1025.699219 
	C391.787720,1025.699219 356.770569,1025.699219 321.483337,1025.699219 
	C321.483337,1055.815674 321.483337,1085.715576 321.483337,1116.002563 
	C359.173187,1116.002563 396.601685,1116.002563 434.374573,1116.002563 
	C434.374573,1123.113770 434.374573,1129.845703 434.374573,1137.052368 
	C396.886688,1137.052368 359.479858,1137.052368 321.644653,1137.052368 
	C321.644653,1168.202393 321.644653,1198.886108 321.644653,1230.120728 
	C347.290405,1230.120728 372.895233,1230.120728 399.000061,1230.120728 
z"/>
<path fill="#FDFDFD" opacity="1.000000" stroke="none" 
	d="
M1659.089355,1251.005249 
	C1656.624512,1251.005249 1654.648438,1251.005249 1652.364746,1251.005249 
	C1652.364746,1244.128906 1652.364746,1237.536499 1652.364746,1230.308594 
	C1659.407227,1230.308594 1666.613403,1230.308594 1674.417358,1230.308594 
	C1673.654419,1228.196899 1673.222778,1226.814209 1672.664429,1225.484741 
	C1662.755981,1201.887451 1652.758301,1178.326904 1642.991455,1154.671143 
	C1641.534668,1151.142700 1639.962891,1149.661377 1635.836792,1149.699585 
	C1609.513184,1149.942993 1583.185913,1149.892334 1556.860962,1149.738525 
	C1553.492920,1149.718750 1551.997070,1150.752808 1550.696655,1153.858276 
	C1540.682983,1177.771118 1530.442017,1201.588745 1520.289062,1225.443481 
	C1519.723267,1226.772705 1519.312378,1228.167969 1518.651245,1230.035645 
	C1526.245972,1230.035645 1533.334229,1230.035645 1540.784058,1230.035645 
	C1540.784058,1237.115723 1540.784058,1243.818848 1540.784058,1250.766113 
	C1516.648560,1250.766113 1492.563965,1250.766113 1468.167236,1250.766113 
	C1468.167236,1244.002563 1468.167236,1237.299194 1468.167236,1230.118896 
	C1475.993896,1230.118896 1483.625977,1229.878784 1491.232056,1230.219604 
	C1495.068726,1230.391602 1496.651611,1228.905762 1498.073242,1225.542358 
	C1530.102783,1149.766724 1562.250732,1074.041138 1594.383057,998.308838 
	C1595.010010,996.830811 1595.718506,995.387451 1596.730591,993.184753 
	C1600.299316,1001.603638 1603.590332,1009.376099 1606.888306,1017.145752 
	C1636.434204,1086.752808 1666.010986,1156.346680 1695.438477,1226.003662 
	C1696.861328,1229.371460 1698.618774,1230.308838 1702.052734,1230.196655 
	C1709.681152,1229.947510 1717.323486,1230.118896 1725.277344,1230.118896 
	C1725.277344,1237.085938 1725.277344,1243.678955 1725.277344,1251.005249 
	C1703.385376,1251.005249 1681.481812,1251.005249 1659.089355,1251.005249 
M1628.458374,1121.048706 
	C1617.654053,1095.338013 1606.849854,1069.627319 1596.277954,1044.469482 
	C1585.048096,1071.785034 1573.520020,1099.825928 1561.865234,1128.174927 
	C1585.267944,1128.174927 1608.085327,1128.174927 1631.353882,1128.174927 
	C1630.377197,1125.697388 1629.596191,1123.716064 1628.458374,1121.048706 
z"/>
<path fill="#333366" opacity="1.000000" stroke="none" 
	d="
M1119.800781,821.893555 
	C954.901062,896.957947 761.868042,801.327942 721.293335,624.777283 
	C688.323120,481.315857 770.005737,335.707123 909.793091,288.754852 
	C1070.379517,234.816513 1243.515747,332.025024 1280.777832,497.046997 
	C1310.654785,629.361816 1244.811890,763.299133 1121.489502,821.075134 
	C1121.036987,821.287170 1120.600098,821.532410 1119.800781,821.893555 
M1066.500000,657.983704 
	C1101.601929,657.983704 1136.703979,657.983704 1172.112671,657.983704 
	C1172.112671,655.739990 1172.112549,654.098328 1172.112671,652.456726 
	C1172.113770,629.623901 1172.236694,606.789734 1171.991333,583.959534 
	C1171.952148,580.312500 1170.755859,576.458984 1169.227173,573.095093 
	C1166.541870,567.186584 1162.127075,563.184631 1155.714722,560.696899 
	C1137.745361,553.725464 1120.053101,546.042175 1102.211670,538.737122 
	C1094.705688,535.663818 1088.867310,531.084351 1087.411499,522.656189 
	C1087.095337,520.825806 1087.523071,518.054077 1088.735474,516.903687 
	C1097.026489,509.036438 1102.557129,499.496460 1106.766235,489.035614 
	C1107.223022,487.900391 1107.920410,486.407532 1108.890869,486.002808 
	C1120.430908,481.189819 1122.884521,471.149902 1123.546387,460.315308 
	C1123.934570,453.958344 1121.137695,448.816711 1116.031982,444.763763 
	C1114.531860,443.572906 1113.486816,441.187347 1113.201904,439.209808 
	C1112.494873,434.303009 1112.998169,429.160583 1111.861816,424.387451 
	C1106.781250,403.048615 1088.999512,389.254730 1067.201904,389.254730 
	C1063.035278,389.254730 1058.843750,388.973358 1054.709717,389.340149 
	C1051.140991,389.656769 1047.309814,390.031097 1044.159180,391.550476 
	C1025.510742,400.543976 1014.995605,415.021088 1014.799194,436.294067 
	C1014.774353,438.982269 1014.378845,442.744659 1012.644409,444.166718 
	C1000.273438,454.309204 1002.877625,478.264038 1017.284546,485.284180 
	C1019.090637,486.164246 1020.833801,488.139130 1021.604065,490.017639 
	C1025.699341,500.004517 1031.152344,508.986572 1038.912354,516.609924 
	C1040.229980,517.904358 1040.873169,520.775330 1040.546265,522.700256 
	C1039.115112,531.126282 1033.238770,535.685059 1025.731323,538.755127 
	C1008.041992,545.989014 990.519897,553.649231 972.688293,560.508301 
	C965.911804,563.114929 961.346130,567.348450 958.514099,573.587952 
	C957.024292,576.870239 955.059143,577.718994 951.648376,577.707397 
	C917.316223,577.590637 882.983398,577.631531 848.650818,577.646851 
	C846.320557,577.647888 843.969482,577.628845 841.664124,577.912476 
	C834.056274,578.848328 829.884338,583.616638 829.884338,591.173584 
	C829.884338,628.006165 829.846008,664.838806 829.960022,701.671021 
	C829.968811,704.497864 831.600891,707.338074 831.515747,710.142822 
	C831.367493,715.028809 830.167908,719.879272 829.958374,724.768127 
	C829.678223,731.303101 830.508850,731.939758 837.028198,731.940186 
	C902.026855,731.944946 967.025513,731.944702 1032.024170,731.940247 
	C1037.365479,731.939880 1040.301147,729.466858 1040.954468,724.134827 
	C1041.256714,721.667847 1041.452271,719.078979 1041.028931,716.662292 
	C1040.595093,714.186157 1039.345825,711.852783 1038.236694,708.875122 
	C1044.750732,693.240967 1039.032349,675.468689 1041.706299,657.983704 
	C1049.584473,657.983704 1057.542236,657.983704 1066.500000,657.983704 
z"/>
<path fill="#353567" opacity="1.000000" stroke="none" 
	d="
M761.188660,1051.999756 
	C761.188660,1043.024536 761.188660,1034.549316 761.188660,1026.302979 
	C761.792114,1025.888550 762.067017,1025.534302 762.331238,1025.541992 
	C778.277039,1026.016113 794.334900,1025.531250 810.131165,1027.334717 
	C822.708435,1028.770752 833.698120,1035.326294 842.232483,1045.098511 
	C859.039795,1064.343750 853.956116,1094.161621 831.725098,1107.647705 
	C822.241699,1113.400513 811.908386,1116.383789 800.945312,1116.680664 
	C787.968445,1117.031982 774.974792,1116.763184 761.188660,1116.763184 
	C761.188660,1095.313110 761.188660,1073.906494 761.188660,1051.999756 
z"/>
<path fill="#373769" opacity="1.000000" stroke="none" 
	d="
M1628.636719,1121.391724 
	C1629.596191,1123.716064 1630.377197,1125.697388 1631.353882,1128.174927 
	C1608.085327,1128.174927 1585.267944,1128.174927 1561.865234,1128.174927 
	C1573.520020,1099.825928 1585.048096,1071.785034 1596.277954,1044.469482 
	C1606.849854,1069.627319 1617.654053,1095.338013 1628.636719,1121.391724 
z"/>
<path fill="#F7F7F9" opacity="1.000000" stroke="none" 
	d="
M1066.000000,657.983704 
	C1057.542236,657.983704 1049.584473,657.983704 1041.706299,657.983704 
	C1039.032349,675.468689 1044.750732,693.240967 1038.236694,708.875122 
	C1039.345825,711.852783 1040.595093,714.186157 1041.028931,716.662292 
	C1041.452271,719.078979 1041.256714,721.667847 1040.954468,724.134827 
	C1040.301147,729.466858 1037.365479,731.939880 1032.024170,731.940247 
	C967.025513,731.944702 902.026855,731.944946 837.028198,731.940186 
	C830.508850,731.939758 829.678223,731.303101 829.958374,724.768127 
	C830.167908,719.879272 831.367493,715.028809 831.515747,710.142822 
	C831.600891,707.338074 829.968811,704.497864 829.960022,701.671021 
	C829.846008,664.838806 829.884338,628.006165 829.884338,591.173584 
	C829.884338,583.616638 834.056274,578.848328 841.664124,577.912476 
	C843.969482,577.628845 846.320557,577.647888 848.650818,577.646851 
	C882.983398,577.631531 917.316223,577.590637 951.648376,577.707397 
	C955.059143,577.718994 957.024292,576.870239 958.514099,573.587952 
	C961.346130,567.348450 965.911804,563.114929 972.688293,560.508301 
	C990.519897,553.649231 1008.041992,545.989014 1025.731323,538.755127 
	C1033.238770,535.685059 1039.115112,531.126282 1040.546265,522.700256 
	C1040.873169,520.775330 1040.229980,517.904358 1038.912354,516.609924 
	C1031.152344,508.986572 1025.699341,500.004517 1021.604065,490.017639 
	C1020.833801,488.139130 1019.090637,486.164246 1017.284546,485.284180 
	C1002.877625,478.264038 1000.273438,454.309204 1012.644409,444.166718 
	C1014.378845,442.744659 1014.774353,438.982269 1014.799194,436.294067 
	C1014.995605,415.021088 1025.510742,400.543976 1044.159180,391.550476 
	C1047.309814,390.031097 1051.140991,389.656769 1054.709717,389.340149 
	C1058.843750,388.973358 1063.035278,389.254730 1067.201904,389.254730 
	C1088.999512,389.254730 1106.781250,403.048615 1111.861816,424.387451 
	C1112.998169,429.160583 1112.494873,434.303009 1113.201904,439.209808 
	C1113.486816,441.187347 1114.531860,443.572906 1116.031982,444.763763 
	C1121.137695,448.816711 1123.934570,453.958344 1123.546387,460.315308 
	C1122.884521,471.149902 1120.430908,481.189819 1108.890869,486.002808 
	C1107.920410,486.407532 1107.223022,487.900391 1106.766235,489.035614 
	C1102.557129,499.496460 1097.026489,509.036438 1088.735474,516.903687 
	C1087.523071,518.054077 1087.095337,520.825806 1087.411499,522.656189 
	C1088.867310,531.084351 1094.705688,535.663818 1102.211670,538.737122 
	C1120.053101,546.042175 1137.745361,553.725464 1155.714722,560.696899 
	C1162.127075,563.184631 1166.541870,567.186584 1169.227173,573.095093 
	C1170.755859,576.458984 1171.952148,580.312500 1171.991333,583.959534 
	C1172.236694,606.789734 1172.113770,629.623901 1172.112671,652.456726 
	C1172.112549,654.098328 1172.112671,655.739990 1172.112671,657.983704 
	C1136.703979,657.983704 1101.601929,657.983704 1066.000000,657.983704 
M832.013123,678.500000 
	C832.013794,684.828918 831.957581,691.158508 832.029480,697.486572 
	C832.122009,705.635254 836.434021,710.077087 844.572144,710.502258 
	C846.233337,710.589050 847.902283,710.536987 849.567627,710.536987 
	C903.197083,710.538269 956.826477,710.538818 1010.455933,710.536682 
	C1015.119141,710.536499 1019.789246,710.675537 1024.443970,710.471680 
	C1032.297852,710.127625 1036.860962,705.633240 1036.877319,697.843689 
	C1036.948853,663.701294 1036.944946,629.558289 1036.802734,595.416199 
	C1036.766479,586.697632 1031.688354,582.027283 1022.959045,582.021667 
	C964.166870,581.984131 905.374756,581.958191 846.582581,581.949036 
	C836.426941,581.947449 832.022644,586.388794 832.017822,596.556213 
	C832.005066,623.537476 832.013306,650.518738 832.013123,678.500000 
M1129.715942,554.764587 
	C1125.573853,553.045593 1121.356323,551.484070 1117.317627,549.549133 
	C1114.843384,548.363708 1113.649414,549.051880 1112.012207,551.077637 
	C1086.169434,583.052124 1041.770996,583.093140 1016.040161,551.141052 
	C1014.188660,548.841919 1012.896606,548.623535 1010.304810,549.729675 
	C997.317383,555.272583 984.256897,560.647888 971.165710,565.942627 
	C966.063049,568.006348 964.141968,572.375793 961.351990,577.259766 
	C982.000000,577.259766 1001.642090,577.240601 1021.284180,577.266296 
	C1034.908447,577.284119 1041.212524,583.496094 1041.247070,596.984497 
	C1041.290527,613.973267 1041.257568,630.962219 1041.257690,647.951050 
	C1041.257690,649.721313 1041.257690,651.491638 1041.257690,653.489502 
	C1070.488281,653.489502 1099.067383,653.489502 1127.759399,653.489502 
	C1127.801147,652.634216 1127.929932,651.969055 1127.850586,651.329712 
	C1125.473145,632.173584 1123.013550,613.027344 1120.766357,593.856079 
	C1120.515869,591.719421 1121.454468,589.443298 1121.841675,587.231873 
	C1122.884766,589.367493 1124.571045,591.417114 1124.869751,593.652283 
	C1127.405396,612.619385 1129.655518,631.624512 1132.130127,650.600159 
	C1132.275146,651.713135 1133.606567,653.552917 1134.410400,653.566162 
	C1146.173096,653.759216 1157.939819,653.698853 1169.988770,653.698853 
	C1169.988770,651.427734 1169.991699,649.779114 1169.988403,648.130432 
	C1169.948853,628.477356 1169.951416,608.823975 1169.810547,589.171631 
	C1169.794189,586.883545 1169.197510,584.533630 1168.502808,582.328064 
	C1165.806274,573.766296 1161.533325,566.830383 1152.116089,563.865173 
	C1144.696411,561.528992 1137.647949,558.014832 1129.715942,554.764587 
M1032.400024,469.425812 
	C1027.432983,466.660553 1026.692871,462.084534 1026.895142,456.982330 
	C1027.031616,453.539856 1022.154602,448.008240 1017.599731,447.812134 
	C1015.388367,447.716919 1012.353027,450.292175 1010.882141,452.464935 
	C1005.897034,459.828888 1010.147522,476.228302 1017.809937,480.653534 
	C1018.526306,481.067261 1019.456360,481.190094 1020.054993,481.713593 
	C1021.749329,483.195465 1024.063965,484.522186 1024.819092,486.430420 
	C1028.596924,495.977722 1033.287109,504.895874 1040.707520,512.133057 
	C1053.295532,524.409973 1068.848633,525.606628 1083.180664,515.456665 
	C1091.484131,509.576141 1096.558105,501.197754 1100.684204,492.199188 
	C1102.965942,487.222839 1103.702637,481.266571 1110.730469,480.112305 
	C1112.059814,479.893982 1113.293701,478.051697 1114.239990,476.722656 
	C1118.500244,470.738953 1120.095215,463.895294 1118.774536,456.820435 
	C1118.220947,453.854614 1115.605835,451.206360 1113.666138,448.609375 
	C1113.116333,447.873199 1111.571045,447.381378 1110.605835,447.538177 
	C1105.535400,448.361908 1101.178711,453.849304 1101.052979,459.257599 
	C1100.883545,466.545227 1096.875732,470.612854 1089.536011,470.816101 
	C1086.039307,470.912964 1082.534790,470.923187 1079.038818,470.813354 
	C1071.906982,470.589264 1068.009399,466.670135 1067.758911,459.575012 
	C1067.697144,457.825165 1067.749512,456.071228 1067.749512,454.383240 
	C1064.867554,454.383240 1062.772339,454.383240 1060.193359,454.383240 
	C1060.193359,456.622101 1060.291382,458.596924 1060.174438,460.558929 
	C1059.856445,465.896088 1056.622070,470.175995 1051.428223,470.484741 
	C1045.348633,470.846039 1039.202759,470.095612 1032.400024,469.425812 
M949.499939,729.805359 
	C974.644470,729.805359 999.789062,729.806152 1024.933594,729.804993 
	C1035.660889,729.804504 1038.702026,725.886536 1036.256592,715.340088 
	C968.215454,715.340088 900.195435,715.340088 832.193909,715.340088 
	C831.517273,728.329651 832.917419,729.805237 845.590393,729.805298 
	C879.893555,729.805359 914.196716,729.805359 949.499939,729.805359 
M1066.315674,420.070496 
	C1070.989990,423.509338 1075.498901,427.207825 1080.381470,430.320007 
	C1086.214966,434.038300 1092.213013,437.581635 1098.451416,440.544769 
	C1101.367798,441.930023 1105.016357,441.773712 1108.361816,442.320831 
	C1111.614380,413.402924 1088.474731,391.024323 1062.307617,391.913361 
	C1043.120850,392.565247 1020.329285,410.906586 1021.422485,424.011200 
	C1026.626465,421.385986 1032.033447,417.586639 1038.035767,415.876434 
	C1047.508179,413.177643 1056.804199,415.718384 1066.315674,420.070496 
M1020.563843,436.484314 
	C1020.530151,439.009888 1019.487061,442.987885 1020.647888,443.794495 
	C1024.452637,446.438416 1029.013794,449.474762 1033.363892,449.600464 
	C1053.839478,450.192169 1074.342529,449.957062 1094.833130,449.753693 
	C1097.603271,449.726196 1100.358643,448.209564 1103.120728,447.382446 
	C1089.112549,442.641663 1085.462646,439.986542 1074.489502,431.236816 
	C1068.674683,426.600189 1061.635620,422.734375 1054.524902,420.643402 
	C1038.771118,416.010712 1026.783936,421.935608 1020.563843,436.484314 
M1055.975952,552.910828 
	C1071.010132,555.320190 1083.697144,551.188232 1092.875977,540.830566 
	C1088.785767,534.273865 1085.127441,528.409485 1081.334839,522.329712 
	C1069.962036,529.009460 1057.666870,528.726074 1046.678223,522.416931 
	C1042.684204,528.681213 1038.970703,534.505615 1035.043213,540.665649 
	C1039.820312,546.558289 1046.997803,550.431885 1055.975952,552.910828 
M1052.845825,556.903625 
	C1043.512207,554.264404 1035.798096,549.044922 1029.569824,541.790283 
	C1025.685303,543.413086 1022.219360,544.861145 1018.232666,546.526733 
	C1031.232056,563.476379 1047.817505,571.496521 1068.611084,569.961609 
	C1085.776489,568.694580 1099.276978,560.610596 1109.679321,546.459534 
	C1105.513672,544.737244 1101.891602,543.239746 1098.428711,541.807983 
	C1086.065063,555.550903 1071.351074,560.724670 1052.845825,556.903625 
M1091.892578,466.183716 
	C1096.865234,463.754639 1097.764526,461.266144 1096.126587,454.310059 
	C1088.245483,454.310059 1080.343628,454.310059 1072.474243,454.310059 
	C1071.045776,464.539856 1072.638794,466.420074 1082.553833,466.416809 
	C1085.373291,466.415863 1088.192627,466.363312 1091.892578,466.183716 
M1055.086060,463.339630 
	C1055.450806,460.360474 1055.815552,457.381317 1056.186401,454.352203 
	C1047.366455,454.352203 1039.460449,454.352203 1031.595215,454.352203 
	C1030.711548,460.878571 1031.378662,463.727295 1034.093872,465.438110 
	C1037.363403,467.498138 1051.234497,466.572662 1055.086060,463.339630 
z"/>
<path fill="#343467" opacity="1.000000" stroke="none" 
	d="
M832.013123,678.000000 
	C832.013306,650.518738 832.005066,623.537476 832.017822,596.556213 
	C832.022644,586.388794 836.426941,581.947449 846.582581,581.949036 
	C905.374756,581.958191 964.166870,581.984131 1022.959045,582.021667 
	C1031.688354,582.027283 1036.766479,586.697632 1036.802734,595.416199 
	C1036.944946,629.558289 1036.948853,663.701294 1036.877319,697.843689 
	C1036.860962,705.633240 1032.297852,710.127625 1024.443970,710.471680 
	C1019.789246,710.675537 1015.119141,710.536499 1010.455933,710.536682 
	C956.826477,710.538818 903.197083,710.538269 849.567627,710.536987 
	C847.902283,710.536987 846.233337,710.589050 844.572144,710.502258 
	C836.434021,710.077087 832.122009,705.635254 832.029480,697.486572 
	C831.957581,691.158508 832.013794,684.828918 832.013123,678.000000 
M950.727112,645.672791 
	C950.518921,644.527649 950.380249,643.364746 950.091370,642.240356 
	C948.241882,635.042114 941.730530,629.999207 934.373230,630.028381 
	C927.201660,630.056824 920.865662,634.896912 918.868469,641.872437 
	C916.801514,649.091553 919.765381,656.480408 926.264099,660.299805 
	C936.590271,666.368591 950.310364,659.506592 950.727112,645.672791 
z"/>
<path fill="#353567" opacity="1.000000" stroke="none" 
	d="
M1130.075195,554.894165 
	C1137.647949,558.014832 1144.696411,561.528992 1152.116089,563.865173 
	C1161.533325,566.830383 1165.806274,573.766296 1168.502808,582.328064 
	C1169.197510,584.533630 1169.794189,586.883545 1169.810547,589.171631 
	C1169.951416,608.823975 1169.948853,628.477356 1169.988403,648.130432 
	C1169.991699,649.779114 1169.988770,651.427734 1169.988770,653.698853 
	C1157.939819,653.698853 1146.173096,653.759216 1134.410400,653.566162 
	C1133.606567,653.552917 1132.275146,651.713135 1132.130127,650.600159 
	C1129.655518,631.624512 1127.405396,612.619385 1124.869751,593.652283 
	C1124.571045,591.417114 1122.884766,589.367493 1121.841675,587.231873 
	C1121.454468,589.443298 1120.515869,591.719421 1120.766357,593.856079 
	C1123.013550,613.027344 1125.473145,632.173584 1127.850586,651.329712 
	C1127.929932,651.969055 1127.801147,652.634216 1127.759399,653.489502 
	C1099.067383,653.489502 1070.488281,653.489502 1041.257690,653.489502 
	C1041.257690,651.491638 1041.257690,649.721313 1041.257690,647.951050 
	C1041.257568,630.962219 1041.290527,613.973267 1041.247070,596.984497 
	C1041.212524,583.496094 1034.908447,577.284119 1021.284180,577.266296 
	C1001.642090,577.240601 982.000000,577.259766 961.351990,577.259766 
	C964.141968,572.375793 966.063049,568.006348 971.165710,565.942627 
	C984.256897,560.647888 997.317383,555.272583 1010.304810,549.729675 
	C1012.896606,548.623535 1014.188660,548.841919 1016.040161,551.141052 
	C1041.770996,583.093140 1086.169434,583.052124 1112.012207,551.077637 
	C1113.649414,549.051880 1114.843384,548.363708 1117.317627,549.549133 
	C1121.356323,551.484070 1125.573853,553.045593 1130.075195,554.894165 
z"/>
<path fill="#353568" opacity="1.000000" stroke="none" 
	d="
M1032.742920,469.626648 
	C1039.202759,470.095612 1045.348633,470.846039 1051.428223,470.484741 
	C1056.622070,470.175995 1059.856445,465.896088 1060.174438,460.558929 
	C1060.291382,458.596924 1060.193359,456.622101 1060.193359,454.383240 
	C1062.772339,454.383240 1064.867554,454.383240 1067.749512,454.383240 
	C1067.749512,456.071228 1067.697144,457.825165 1067.758911,459.575012 
	C1068.009399,466.670135 1071.906982,470.589264 1079.038818,470.813354 
	C1082.534790,470.923187 1086.039307,470.912964 1089.536011,470.816101 
	C1096.875732,470.612854 1100.883545,466.545227 1101.052979,459.257599 
	C1101.178711,453.849304 1105.535400,448.361908 1110.605835,447.538177 
	C1111.571045,447.381378 1113.116333,447.873199 1113.666138,448.609375 
	C1115.605835,451.206360 1118.220947,453.854614 1118.774536,456.820435 
	C1120.095215,463.895294 1118.500244,470.738953 1114.239990,476.722656 
	C1113.293701,478.051697 1112.059814,479.893982 1110.730469,480.112305 
	C1103.702637,481.266571 1102.965942,487.222839 1100.684204,492.199188 
	C1096.558105,501.197754 1091.484131,509.576141 1083.180664,515.456665 
	C1068.848633,525.606628 1053.295532,524.409973 1040.707520,512.133057 
	C1033.287109,504.895874 1028.596924,495.977722 1024.819092,486.430420 
	C1024.063965,484.522186 1021.749329,483.195465 1020.054993,481.713593 
	C1019.456360,481.190094 1018.526306,481.067261 1017.809937,480.653534 
	C1010.147522,476.228302 1005.897034,459.828888 1010.882141,452.464935 
	C1012.353027,450.292175 1015.388367,447.716919 1017.599731,447.812134 
	C1022.154602,448.008240 1027.031616,453.539856 1026.895142,456.982330 
	C1026.692871,462.084534 1027.432983,466.660553 1032.742920,469.626648 
M1073.532349,497.927582 
	C1067.839233,502.436218 1062.023193,503.487030 1055.749634,498.913452 
	C1054.884644,498.282898 1053.231201,498.733643 1051.942871,498.683807 
	C1052.312866,499.830872 1052.352905,501.298676 1053.105957,502.073364 
	C1058.347412,507.465210 1069.844727,507.390991 1075.018921,502.036438 
	C1076.659058,500.339142 1077.490479,498.674896 1073.532349,497.927582 
z"/>
<path fill="#373769" opacity="1.000000" stroke="none" 
	d="
M948.999878,729.805359 
	C914.196716,729.805359 879.893555,729.805359 845.590393,729.805298 
	C832.917419,729.805237 831.517273,728.329651 832.193909,715.340088 
	C900.195435,715.340088 968.215454,715.340088 1036.256592,715.340088 
	C1038.702026,725.886536 1035.660889,729.804504 1024.933594,729.804993 
	C999.789062,729.806152 974.644470,729.805359 948.999878,729.805359 
z"/>
<path fill="#353568" opacity="1.000000" stroke="none" 
	d="
M1065.962280,419.940643 
	C1056.804199,415.718384 1047.508179,413.177643 1038.035767,415.876434 
	C1032.033447,417.586639 1026.626465,421.385986 1021.422485,424.011200 
	C1020.329285,410.906586 1043.120850,392.565247 1062.307617,391.913361 
	C1088.474731,391.024323 1111.614380,413.402924 1108.361816,442.320831 
	C1105.016357,441.773712 1101.367798,441.930023 1098.451416,440.544769 
	C1092.213013,437.581635 1086.214966,434.038300 1080.381470,430.320007 
	C1075.498901,427.207825 1070.989990,423.509338 1065.962280,419.940643 
z"/>
<path fill="#373769" opacity="1.000000" stroke="none" 
	d="
M1020.716125,436.109619 
	C1026.783936,421.935608 1038.771118,416.010712 1054.524902,420.643402 
	C1061.635620,422.734375 1068.674683,426.600189 1074.489502,431.236816 
	C1085.462646,439.986542 1089.112549,442.641663 1103.120728,447.382446 
	C1100.358643,448.209564 1097.603271,449.726196 1094.833130,449.753693 
	C1074.342529,449.957062 1053.839478,450.192169 1033.363892,449.600464 
	C1029.013794,449.474762 1024.452637,446.438416 1020.647888,443.794495 
	C1019.487061,442.987885 1020.530151,439.009888 1020.716125,436.109619 
z"/>
<path fill="#353568" opacity="1.000000" stroke="none" 
	d="
M1055.569824,552.815308 
	C1046.997803,550.431885 1039.820312,546.558289 1035.043213,540.665649 
	C1038.970703,534.505615 1042.684204,528.681213 1046.678223,522.416931 
	C1057.666870,528.726074 1069.962036,529.009460 1081.334839,522.329712 
	C1085.127441,528.409485 1088.785767,534.273865 1092.875977,540.830566 
	C1083.697144,551.188232 1071.010132,555.320190 1055.569824,552.815308 
z"/>
<path fill="#373769" opacity="1.000000" stroke="none" 
	d="
M1053.263428,556.960327 
	C1071.351074,560.724670 1086.065063,555.550903 1098.428711,541.807983 
	C1101.891602,543.239746 1105.513672,544.737244 1109.679321,546.459534 
	C1099.276978,560.610596 1085.776489,568.694580 1068.611084,569.961609 
	C1047.817505,571.496521 1031.232056,563.476379 1018.232666,546.526733 
	C1022.219360,544.861145 1025.685303,543.413086 1029.569824,541.790283 
	C1035.798096,549.044922 1043.512207,554.264404 1053.263428,556.960327 
z"/>
<path fill="#373769" opacity="1.000000" stroke="none" 
	d="
M1091.452393,466.259064 
	C1088.192627,466.363312 1085.373291,466.415863 1082.553833,466.416809 
	C1072.638794,466.420074 1071.045776,464.539856 1072.474243,454.310059 
	C1080.343628,454.310059 1088.245483,454.310059 1096.126587,454.310059 
	C1097.764526,461.266144 1096.865234,463.754639 1091.452393,466.259064 
z"/>
<path fill="#373769" opacity="1.000000" stroke="none" 
	d="
M1054.858398,463.703735 
	C1051.234497,466.572662 1037.363403,467.498138 1034.093872,465.438110 
	C1031.378662,463.727295 1030.711548,460.878571 1031.595215,454.352203 
	C1039.460449,454.352203 1047.366455,454.352203 1056.186401,454.352203 
	C1055.815552,457.381317 1055.450806,460.360474 1054.858398,463.703735 
z"/>
<path fill="#F2F2F5" opacity="1.000000" stroke="none" 
	d="
M950.745850,646.079956 
	C950.310364,659.506592 936.590271,666.368591 926.264099,660.299805 
	C919.765381,656.480408 916.801514,649.091553 918.868469,641.872437 
	C920.865662,634.896912 927.201660,630.056824 934.373230,630.028381 
	C941.730530,629.999207 948.241882,635.042114 950.091370,642.240356 
	C950.380249,643.364746 950.518921,644.527649 950.745850,646.079956 
M937.830933,634.960876 
	C929.994995,633.553833 923.993042,637.232788 922.819214,644.162476 
	C921.709290,650.715332 925.817932,656.851685 932.064026,657.969849 
	C937.990784,659.030823 943.764038,655.788879 945.660828,650.334595 
	C947.783630,644.230774 945.326111,638.913025 937.830933,634.960876 
z"/>
<path fill="#F7F7F9" opacity="1.000000" stroke="none" 
	d="
M1073.897705,497.859528 
	C1077.490479,498.674896 1076.659058,500.339142 1075.018921,502.036438 
	C1069.844727,507.390991 1058.347412,507.465210 1053.105957,502.073364 
	C1052.352905,501.298676 1052.312866,499.830872 1051.942871,498.683777 
	C1053.231201,498.733643 1054.884644,498.282898 1055.749634,498.913452 
	C1062.023193,503.487030 1067.839233,502.436218 1073.897705,497.859528 
z"/>
<path fill="#373769" opacity="1.000000" stroke="none" 
	d="
M938.236633,635.054138 
	C945.326111,638.913025 947.783630,644.230774 945.660828,650.334595 
	C943.764038,655.788879 937.990784,659.030823 932.064026,657.969849 
	C925.817932,656.851685 921.709290,650.715332 922.819214,644.162476 
	C923.993042,637.232788 929.994995,633.553833 938.236633,635.054138 
z"/>
</svg>